<?xml version="1.0" encoding="UTF-8" standalone="no"?>
<!-- Created with Inkscape (http://www.inkscape.org/) -->

<svg
   width="85.629768mm"
   height="47.834644mm"
   viewBox="0 0 85.629768 47.834644"
   version="1.1"
   id="svg1"
   xml:space="preserve"
   xmlns:inkscape="http://www.inkscape.org/namespaces/inkscape"
   xmlns:sodipodi="http://sodipodi.sourceforge.net/DTD/sodipodi-0.dtd"
   xmlns="http://www.w3.org/2000/svg"
   xmlns:svg="http://www.w3.org/2000/svg"><sodipodi:namedview
     id="namedview1"
     pagecolor="#ffffff"
     bordercolor="#000000"
     borderopacity="0.25"
     inkscape:showpageshadow="2"
     inkscape:pageopacity="0.0"
     inkscape:pagecheckerboard="0"
     inkscape:deskcolor="#d1d1d1"
     inkscape:document-units="mm" /><defs
     id="defs1" /><g
     inkscape:label="Layer 1"
     inkscape:groupmode="layer"
     id="layer1"
     transform="translate(-62.202997,-123.62861)"><path
       d="m 147.64418,136.31615 -34.10179,7.99176 c -0.0618,4.15102 -0.0572,4.13069 -0.16732,9.82415 l 19.71811,-3.29275 c 7.68709,-1.90758 14.5512,-4.39735 14.551,-14.52316 z"
       style="fill:#f59400;fill-opacity:1"
       id="path1-9"
       sodipodi:nodetypes="ccccc" /><path
       id="path1"
       style="fill:#9e470f;fill-opacity:1"
       d="m 109.94678,160.23212 -0.42122,11.23114 3.08339,-5.90465 0.61639,-11.30992 z"
       sodipodi:nodetypes="ccccc" /><path
       d="m 113.79576,131.60468 c 14.74676,-3.43965 21.208,-4.93335 34.03701,-7.97382 -0.048,3.72345 -0.073,3.69877 -0.0228,9.44311 -6.47392,1.90305 -32.10699,7.61717 -34.16709,8.04331 z"
       style="fill:#9e470f;fill-opacity:1"
       id="path1-4" /><path
       d="m 62.39159,136.3139 34.101598,7.99176 c 0.0618,4.15102 0.0572,4.13069 0.167317,9.82415 L 76.942509,150.83706 C 69.255461,148.92948 62.39139,146.43971 62.39159,136.3139 Z"
       style="fill:#f59400;fill-opacity:1"
       id="path1-9-6"
       sodipodi:nodetypes="ccccc" /><path
       id="path1-5"
       style="fill:#9e470f;fill-opacity:1"
       d="m 100.08878,160.22987 0.42121,11.23114 -3.083368,-5.90465 -0.616387,-11.30992 z"
       sodipodi:nodetypes="ccccc" /><path
       d="m 96.239818,131.60243 c -14.746676,-3.43965 -21.20788,-4.93335 -34.036818,-7.97382 0.048,3.72345 0.073,3.69877 0.0228,9.44311 6.473884,1.90305 32.10681,7.61717 34.166898,8.04331 z"
       style="fill:#9e470f;fill-opacity:1"
       id="path1-4-6" /></g></svg>
